<?xml version="1.0" encoding="UTF-8" standalone="no"?>
<svg
   xmlns:dc="http://purl.org/dc/elements/1.1/"
   xmlns:cc="http://creativecommons.org/ns#"
   xmlns:rdf="http://www.w3.org/1999/02/22-rdf-syntax-ns#"
   xmlns:svg="http://www.w3.org/2000/svg"
   xmlns="http://www.w3.org/2000/svg"
   width="52mm"
   height="42mm"
   viewBox="0 0 52 42"
   version="1.1"
   id="svg8">
  <defs
     id="defs2" />
  <metadata
     id="metadata5">
    <rdf:RDF>
      <cc:Work
         rdf:about="">
        <dc:format>image/svg+xml</dc:format>
        <dc:type
           rdf:resource="http://purl.org/dc/dcmitype/StillImage" />
        <dc:title></dc:title>
      </cc:Work>
    </rdf:RDF>
  </metadata>
  <path
     style="fill:#222222"
     d="M 2.999817,0 C 1.3378166,0 0,1.3378166 0,2.999817 v 36.000385 c 0,1.662002 1.3378166,2.999817 2.999817,2.999817 H 49.00011 c 1.661999,0 2.999817,-1.337815 2.999817,-2.999817 V 2.999817 C 51.999927,1.3378166 50.662109,0 49.00011,0 Z m 1.4102497,33.450154 a 2.2499999,2.2499999 0 0 1 2.2499918,2.249993 2.2499999,2.2499999 0 0 1 -2.2499918,2.24999 2.2499999,2.2499999 0 0 1 -2.2499919,-2.24999 2.2499999,2.2499999 0 0 1 2.2499919,-2.249993 z m 10.1601033,0 a 2.2499999,2.2499999 0 0 1 2.249992,2.249993 2.2499999,2.2499999 0 0 1 -2.249992,2.24999 2.2499999,2.2499999 0 0 1 -2.249992,-2.24999 2.2499999,2.2499999 0 0 1 2.249992,-2.249993 z m 11.429793,0 a 2.2499999,2.2499999 0 0 1 2.249991,2.249993 2.2499999,2.2499999 0 0 1 -2.249991,2.24999 2.2499999,2.2499999 0 0 1 -2.249992,-2.24999 2.2499999,2.2499999 0 0 1 2.249992,-2.249993 z m 11.429794,0 a 2.2499999,2.2499999 0 0 1 2.24999,2.249993 2.2499999,2.2499999 0 0 1 -2.24999,2.24999 2.2499999,2.2499999 0 0 1 -2.249993,-2.24999 2.2499999,2.2499999 0 0 1 2.249993,-2.249993 z m 10.160103,0 a 2.25,2.25 0 0 1 2.24999,2.249993 2.25,2.25 0 0 1 -2.24999,2.24999 2.25,2.25 0 0 1 -2.249993,-2.24999 2.25,2.25 0 0 1 2.249993,-2.249993 z"
     id="path818" />
  <path
     style="fill:#d4af37"
     d="m 0.71985269,36.999809 v 3.950663 c 0.28088921,0.328306 0.63176781,0.59358 1.02991131,0.775664 v -4.726327 z"
     id="pin-P3" />
  <path
     style="fill:#d4af37"
     d="m 4.4100667,33.200041 a 2.4999999,2.4999999 0 0 0 -2.5001058,2.500106 2.4999999,2.4999999 0 0 0 0.080099,0.620117 v 5.503024 c 0.3156987,0.112321 0.6545468,0.176731 1.0097576,0.176731 h 3.8302564 v -5.686473 a 2.4999999,2.4999999 0 0 0 0.079582,-0.613399 2.4999999,2.4999999 0 0 0 -2.4995889,-2.500106 z m 0,0.499711 A 2,2 0 0 1 6.4099444,35.700147 2,2 0 0 1 4.4100667,37.700024 2,2 0 0 1 2.409672,35.700147 2,2 0 0 1 4.4100667,33.699752 Z"
     id="pin-P0" />
  <rect
     style="fill:#d4af37"
     id="pin-P4"
     width="1.03"
     height="5"
     x="7.0700002"
     y="37" />
  <rect
     style="fill:#d4af37"
     id="pin-P5"
     width="1.03"
     height="5"
     x="8.3400002"
     y="37" />
  <rect
     style="fill:#d4af37"
     id="pin-P6"
     width="1.03"
     height="5"
     x="9.6099997"
     y="37" />
  <rect
     style="fill:#d4af37"
     id="pin-P7"
     width="1.03"
     height="5"
     x="10.88"
     y="37" />
  <path
     style="fill:#d4af37"
     d="m 14.57017,33.200041 a 2.4999999,2.4999999 0 0 0 -2.500106,2.500106 2.4999999,2.4999999 0 0 0 0.0801,0.620117 v 5.679755 h 4.840014 v -5.686473 a 2.4999999,2.4999999 0 0 0 0.07958,-0.613399 2.4999999,2.4999999 0 0 0 -2.499588,-2.500106 z m 0,0.499711 a 2,2 0 0 1 1.999878,2.000395 2,2 0 0 1 -1.999878,1.999877 2,2 0 0 1 -2.000395,-1.999877 2,2 0 0 1 2.000395,-2.000395 z"
     id="pin-P1" />
  <rect
     style="fill:#d4af37"
     id="pin-P8"
     width="1.03"
     height="5"
     x="17.23"
     y="37" />
  <rect
     style="fill:#d4af37"
     id="pin-P9"
     width="1.03"
     height="5"
     x="18.5"
     y="37" />
  <rect
     style="fill:#d4af37"
     id="pin-P10"
     width="1.03"
     height="5"
     x="19.77"
     y="37" />
  <rect
     style="fill:#d4af37"
     id="pin-P11"
     width="1.03"
     height="5"
     x="21.039999"
     y="37" />
  <rect
     style="fill:#d4af37"
     id="pin-P12"
     width="1.03"
     height="5"
     x="22.309999"
     y="37" />
  <path
     style="fill:#d4af37"
     d="M 26.000106,33.200022 A 2.4999999,2.4999999 0 0 0 23.5,35.700128 2.4999999,2.4999999 0 0 0 23.5801,36.320245 V 42 h 4.840015 v -5.686473 a 2.4999999,2.4999999 0 0 0 0.07958,-0.613399 2.4999999,2.4999999 0 0 0 -2.499588,-2.500106 z m 0,0.499711 a 2,2 0 0 1 1.999879,2.000395 2,2 0 0 1 -1.999879,1.999877 2,2 0 0 1 -2.000395,-1.999877 2,2 0 0 1 2.000395,-2.000395 z"
     id="pin-P2" />
  <rect
     style="fill:#d4af37"
     id="pin-P13"
     width="1.0299996"
     height="5"
     x="28.66"
     y="37" />
  <rect
     style="fill:#d4af37"
     id="pin-P14"
     width="1.0299996"
     height="5"
     x="29.929998"
     y="37" />
  <rect
     style="fill:#d4af37"
     id="pin-P15"
     width="1.0299996"
     height="5"
     x="31.199999"
     y="37" />
  <rect
     style="fill:#d4af37"
     width="1.0299996"
     height="5"
     x="32.470001"
     y="37"
     id="pin-P16" />
  <rect
     style="fill:#d4af37"
     width="1.0299996"
     height="5"
     x="33.740002"
     y="37"
     id="rect837" />
  <path
     style="fill:#d4af37"
     d="M 37.430106,33.200022 A 2.4999999,2.4999999 0 0 0 34.93,35.700128 2.4999999,2.4999999 0 0 0 35.0101,36.320245 V 42 h 4.840014 v -5.686473 a 2.4999999,2.4999999 0 0 0 0.07958,-0.613399 2.4999999,2.4999999 0 0 0 -2.499588,-2.500106 z m 0,0.499711 a 2,2 0 0 1 1.999879,2.000395 2,2 0 0 1 -1.999879,1.999877 2,2 0 0 1 -2.000395,-1.999877 2,2 0 0 1 2.000395,-2.000395 z"
     id="path839" />
  <rect
     style="fill:#d4af37"
     width="1.0299996"
     height="5"
     x="40.090004"
     y="37"
     id="rect841" />
  <rect
     style="fill:#d4af37"
     id="pin-P19"
     width="1.0299996"
     height="5"
     x="41.360001"
     y="37" />
  <rect
     style="fill:#d4af37"
     id="pin-P20"
     width="1.0299996"
     height="5"
     x="42.630001"
     y="37" />
  <rect
     style="fill:#d4af37"
     width="1.0299996"
     height="5"
     x="43.900002"
     y="37"
     id="rect845" />
  <path
     style="fill:#d4af37"
     d="m 47.58986,33.200041 a 2.4999999,2.4999999 0 0 0 -2.500106,2.500106 2.4999999,2.4999999 0 0 0 0.0801,0.620117 v 5.679755 h 3.830259 c 0.355209,0 0.694058,-0.06441 1.009756,-0.176731 v -5.509742 a 2.4999999,2.4999999 0 0 0 0.07958,-0.613399 2.4999999,2.4999999 0 0 0 -2.499589,-2.500106 z m 0,0.499711 a 2,2 0 0 1 1.999877,2.000395 2,2 0 0 1 -1.999877,1.999877 2,2 0 0 1 -2.000395,-1.999877 2,2 0 0 1 2.000395,-2.000395 z"
     id="path847" />
  <path
     style="fill:#d4af37"
     d="m 50.250163,36.999809 v 4.726327 c 0.398122,-0.182076 0.749028,-0.447382 1.02991,-0.775664 v -3.950663 z"
     id="path849" />
  <path
     style="fill:#ff3a54"
     d="M 2.999817,0 C 1.3378169,0 0,1.3378165 0,2.999817 v 8.999968 L 11.999784,0 Z"
     id="path851" />
  <path
     style="fill:#ff3a54"
     d="m 12,0 h 6 l -6,6 z"
     id="path853" />
  <path
     style="fill:#ff3a54"
     d="m 18,0 h 3 l -3,3 z"
     id="path855" />
  <text
     xml:space="preserve"
     style="font-weight:bold;font-size:2.46944451px;font-family:Courier New;text-anchor:middle;fill:#000000"
     x="4.4099998"
     y="40.5"
     id="text1258-7-0-9"><tspan
       x="4.4099998"
       y="40.5"
       id="tspan1374">0</tspan></text>
  <text
     xml:space="preserve"
     style="font-weight:bold;font-size:2.46944451px;font-family:Courier New;text-anchor:middle;fill:#000000"
     x="14.57"
     y="40.5"
     id="text1258-7-0-7"><tspan
       x="14.57"
       y="40.5"
       id="tspan1312-4">1</tspan></text>
  <text
     xml:space="preserve"
     style="font-weight:bold;font-size:2.46944451px;font-family:Courier New;text-anchor:middle;fill:#000000"
     x="26"
     y="40.5"
     id="text1258-7-0-1"><tspan
       x="26"
       y="40.5"
       id="tspan1382">2</tspan></text>
  <text
     xml:space="preserve"
     style="font-weight:bold;font-size:2.46944451px;font-family:Courier New;text-anchor:middle;fill:#000000"
     x="37.43"
     y="40.5"
     id="text1258-7-0"><tspan
       x="37.43"
       y="40.5"
       id="tspan1312">3V</tspan></text>
  <text
     xml:space="preserve"
     style="font-weight:bold;font-size:2.46944451px;font-family:Courier New;text-anchor:middle;fill:#000000"
     x="47.59"
     y="40.5"
     id="text1258-7"><tspan
       x="47.59"
       y="40.5"
       id="tspan1290">GND</tspan></text>
</svg>
